# xmcd
#
# Track frame offsets: 
#        150
#        2314
#        15330
#        31123
#        32700
#        37813
#        50219
#        62162
#        63064
#        73868
#        85006
#        98802
#        111452
#        123605
#        135948
#        139016
#        150483
#        161374
#        174302
#
# Disc length: 2483 seconds
#
# Revision: 1
# Processed by: cddbd v1.5.2PL0 Copyright (c) Steve Scherf et al.
# Submitted via: ExactAudioCopyFreeDBPlugin 1.0
#
DISCID=e509b113
DTITLE=Ray Charles - Ray Charles:  Unreleased on Swing Time
DYEAR=2006
DGENRE=Rhythm and Blues
TTITLE0=Honey, Honey (false starts)
TTITLE1=Honey, Honey (unknown take)
TTITLE2=I'm Glad for Your Sake (take 1)
TTITLE3=Jack, She's on the Ball (false start)
TTITLE4=Jack, She's on the Ball (incomplete take)
TTITLE5=Baby Won't You Please Come Home (take 1)
TTITLE6=Sitting on Top of the World (take 1)
TTITLE7=Ain't That Fine (false start)
TTITLE8=Ain't That Fine (take 1)
TTITLE9=I Wonder Who's Kissing Her Now? (take 1)
TTITLE10=All to Myself Alone (extended version)
TTITLE11=Blues Before Sunrise (take 4)
TTITLE12=A Sentimental Blues (take 1)
TTITLE13=I'm Glad for Your Sake (take 2)
TTITLE14=Baby Won't You Please Come Home (incomplete take)
TTITLE15=Sitting on Top of the World (take 4)
TTITLE16=I Wonder Who's Kissing Her Now? (take 3)
TTITLE17=Blues Before Sunrise (take 5)
TTITLE18=A Sentimental Blues (take 3)
EXTD=
EXTT0=
EXTT1=
EXTT2=
EXTT3=
EXTT4=
EXTT5=
EXTT6=
EXTT7=
EXTT8=
EXTT9=
EXTT10=
EXTT11=
EXTT12=
EXTT13=
EXTT14=
EXTT15=
EXTT16=
EXTT17=
EXTT18=
PLAYORDER=
